<?xml version="1.0" encoding="UTF-8" standalone="no"?><!DOCTYPE svg PUBLIC "-//W3C//DTD SVG 1.1//EN" "http://www.w3.org/Graphics/SVG/1.1/DTD/svg11.dtd"><svg width="100%" height="100%" viewBox="0 0 256 256" version="1.1" xmlns="http://www.w3.org/2000/svg" xmlns:xlink="http://www.w3.org/1999/xlink" xml:space="preserve" xmlns:serif="http://www.serif.com/" style="fill-rule:evenodd;clip-rule:evenodd;stroke-linejoin:round;stroke-miterlimit:1.41421;"><rect x="0" y="0" width="256" height="256"/><g id="Layer-1" serif:id="Layer 1"><g><path d="M115.013,156.52c0.386,10.984 2.891,13.875 9.25,13.49l-11.947,13.874c-5.782,-3.083 -7.709,-10.406 -7.902,-27.171c-97.509,1.927 -88.066,-6.745 1.927,-90.186l10.599,5.589c-76.889,67.447 -87.295,77.082 -12.333,74.577c0.193,-13.49 1.349,-31.604 2.698,-55.692l11.948,-1.349c-2.12,26.208 -3.662,44.128 -4.24,56.462l31.411,-1.541l-3.662,11.177l-27.749,0.771l0,-0.001Z" style="fill:#0f0;fill-rule:nonzero;"/><path d="M183.037,135.902c15.031,0 27.75,-12.527 27.75,-27.75c0,-15.225 -12.719,-27.749 -27.75,-27.749c-15.223,-0.001 -27.749,12.524 -27.749,27.748c0,15.224 12.526,27.75 27.749,27.75m35.072,-13.489c-0.193,0.577 -0.385,0.963 -0.577,1.348c-26.016,60.317 -27.75,65.52 -39.313,65.713l-4.624,-17.729c9.635,5.781 9.442,9.057 25.245,-29.099c-4.818,2.313 -10.215,3.469 -15.803,3.469c-21.005,0 -38.156,-16.958 -38.156,-37.963c0,-21.005 17.151,-37.962 38.156,-37.962c20.812,0 37.963,16.957 37.963,37.962c0,5.01 -0.964,9.636 -2.697,14.067l-0.194,0.194Z" style="fill:#0f0;fill-rule:nonzero;"/></g></g></svg>