<?xml version="1.0" encoding="utf-8"?>
<!-- Generator: Adobe Illustrator 18.1.1, SVG Export Plug-In . SVG Version: 6.00 Build 0)  -->
<svg version="1.1" id="Layer_1" xmlns="http://www.w3.org/2000/svg" xmlns:xlink="http://www.w3.org/1999/xlink" x="0px" y="0px"
	 viewBox="307.1 380 50 22" enable-background="new 307.1 380 50 22" xml:space="preserve">
<g>
	<path fill="#FFFFFF" d="M320,385c-2.8,0-5,2.2-5,5s2.2,5,5,5s5-2.2,5-5S322.8,385,320,385z M320,393c-1.7,0-3-1.3-3-3s1.3-3,3-3
		s3,1.3,3,3S321.7,393,320,393z"/>
	<rect x="315.6" y="391.9" fill="#FFFFFF" width="0" height="0.1"/>
	<polygon fill="#FFFFFF" points="312,395 310,395 310,382 312,382 312,382 	"/>
	<path fill="#FFFFFF" d="M332,385c-2.8,0-5,2.2-5,5s2.2,5,5,5c1.1,0,3-0.4,3-1v1c0,1.7-1,3-3,3v2c3,0,5-2.2,5-5v-5
		C337,387.2,334.8,385,332,385z M332.1,393c-1.7,0-3-1.3-3-3s1.3-3,3-3s3,1.3,3,3S333.7,393,332.1,393z"/>
	<path fill="#FFFFFF" d="M349,385c-2,0-4,1.6-4,3.5v0.5v5v1h2v-1v-5v-0.5c0-0.8,1-1.5,2-1.5s2,0.7,2,1.5v0.5v5v1h2v-1v-5v-0.5
		C353,386.6,351,385,349,385z"/>
	<g>
		<polygon fill="#FFFFFF" points="342,395 340,395 340,385 342,385 342,385 		"/>
		<circle fill="#FFFFFF" cx="341" cy="382.9" r="1"/>
	</g>
</g>
</svg>
