<?xml version="1.0" encoding="UTF-8" standalone="no"?><!DOCTYPE svg PUBLIC "-//W3C//DTD SVG 1.1//EN" "http://www.w3.org/Graphics/SVG/1.1/DTD/svg11.dtd"><svg width="100%" height="100%" viewBox="0 0 1000 1000" version="1.1" xmlns="http://www.w3.org/2000/svg" xmlns:xlink="http://www.w3.org/1999/xlink" xml:space="preserve" xmlns:serif="http://www.serif.com/" style="fill-rule:evenodd;clip-rule:evenodd;stroke-linejoin:round;stroke-miterlimit:1.41421;"><g id="Short"><rect x="0" y="0" width="1000" height="1000" style="fill:#00ffd4;"/><g><g><path d="M766.439,922.46l-22.548,-86.428c54.491,32.882 44.156,53.546 169.103,-252.722c7.521,-17.85 12.218,-36.64 12.218,-57.304c0,-74.219 -62.006,-135.285 -135.286,-135.285c-74.219,0 -135.286,61.066 -135.286,135.285c0,74.215 61.067,135.282 135.286,135.282c14.092,0 38.519,-1.879 51.672,-6.577l-19.729,52.611c-12.214,2.819 -18.79,3.758 -31.943,3.758c-102.404,0 -186.018,-82.674 -186.018,-185.074c0,-102.403 83.614,-185.078 186.018,-185.078c101.465,0 185.074,82.675 185.074,185.078c0,23.488 -4.697,46.03 -12.209,66.699c-130.588,301.57 -139.043,328.815 -196.352,329.755" style="fill:#fff;fill-rule:nonzero;"/><path d="M415.076,761.812c1.879,53.546 14.093,67.639 45.096,65.764l-58.248,67.639c-28.185,-15.032 -37.58,-50.728 -38.519,-132.463c-475.37,9.395 -429.335,-32.882 9.395,-439.67l51.671,27.241c-374.85,328.815 -425.582,375.789 -60.127,363.576c0.94,-65.764 6.581,-154.076 13.153,-271.507l58.248,-6.576c-10.334,127.77 -17.85,215.137 -20.669,275.264l153.136,-7.516l-17.85,54.49l-135.286,3.758Z" style="fill:#fff;fill-rule:nonzero;"/></g><g><path d="M889.148,93.672c49.39,0 85.852,35.468 85.852,65.299c0,35.8 -35.47,62.318 -131.596,42.429l-7.291,-20.55c76.238,14.252 121.317,11.602 121.317,-21.214c0,-17.237 -23.533,-47.733 -68.614,-47.733c-37.456,0 -71.265,33.479 -71.265,70.936c0,37.455 33.809,71.597 71.265,71.597c37.455,0 57.677,-14.253 80.88,-37.788l-8.62,29.17c-9.279,9.281 -25.853,26.849 -71.928,26.849c-45.744,0 -89.83,-44.086 -89.83,-89.828c0,-45.412 44.086,-89.167 89.83,-89.167" style="fill:#fff;fill-rule:nonzero;"/><path d="M777.442,106.931c-82.868,220.428 -82.868,220.428 -165.736,0l15.58,-13.259c67.288,192.254 67.288,192.254 134.577,0.332l15.579,12.927Z" style="fill:#fff;fill-rule:nonzero;"/><path d="M581.209,93.009c-8.95,116.346 -13.591,157.448 8.618,155.79l-20.551,23.867c-12.596,-6.63 -14.917,-34.141 -12.928,-89.497c0,-37.455 -33.809,-71.267 -71.265,-71.267c-37.457,0 -71.267,33.812 -71.267,71.267c0,37.457 33.81,71.265 71.267,71.265c22.872,0 44.416,-12.594 57.675,-31.157l-3.978,29.169c-15.579,12.596 -34.14,20.22 -53.366,20.22c-45.742,0 -89.828,-44.085 -89.828,-89.829c0,-45.41 44.086,-89.166 89.828,-89.166c28.507,0 56.349,17.238 73.255,41.103l1.988,-39.446l20.552,-2.319Z" style="fill:#fff;fill-rule:nonzero;"/><path d="M373.705,106.931c-69.608,185.625 -80.878,214.795 -131.925,88.171c-36.461,-98.776 -49.057,-98.445 -85.519,1.657c-50.714,124.967 -61.984,94.801 -131.261,-89.828l15.578,-12.927c57.345,165.404 66.293,188.608 110.048,69.61c41.103,-101.762 56.351,-101.43 97.783,0.994c43.424,117.672 52.705,94.469 109.717,-70.604l15.579,12.927Z" style="fill:#fff;fill-rule:nonzero;"/></g></g></g></svg>