<?xml version="1.0" encoding="UTF-8" standalone="no"?><!DOCTYPE svg PUBLIC "-//W3C//DTD SVG 1.1//EN" "http://www.w3.org/Graphics/SVG/1.1/DTD/svg11.dtd"><svg width="100%" height="100%" viewBox="0 0 1000 1000" version="1.1" xmlns="http://www.w3.org/2000/svg" xmlns:xlink="http://www.w3.org/1999/xlink" xml:space="preserve" xmlns:serif="http://www.serif.com/" style="fill-rule:evenodd;clip-rule:evenodd;stroke-linejoin:round;stroke-miterlimit:1.41421;"><g id="Short"><g><path d="M925.931,571.891l-5.305,-20.335c12.82,7.737 10.389,12.598 39.786,-59.458c1.769,-4.2 2.874,-8.621 2.874,-13.482c0,-17.462 -14.588,-31.829 -31.829,-31.829c-17.462,0 -31.829,14.367 -31.829,31.829c0,17.46 14.367,31.828 31.829,31.828c3.316,0 9.063,-0.442 12.157,-1.547l-4.642,12.378c-2.873,0.663 -4.42,0.884 -7.515,0.884c-24.093,0 -43.765,-19.451 -43.765,-43.543c0,-24.093 19.672,-43.544 43.765,-43.544c23.872,0 43.543,19.451 43.543,43.544c0,5.526 -1.105,10.829 -2.872,15.692c-30.724,70.952 -32.714,77.362 -46.197,77.583" style="fill:#fff;fill-rule:nonzero;"/><path d="M843.265,534.095c0.442,12.598 3.316,15.913 10.61,15.472l-13.705,15.914c-6.631,-3.537 -8.841,-11.935 -9.062,-31.165c-111.842,2.21 -101.011,-7.737 2.21,-103.443l12.157,6.409c-88.192,77.361 -100.128,88.413 -14.146,85.54c0.221,-15.473 1.548,-36.25 3.095,-63.878l13.704,-1.548c-2.432,30.061 -4.2,50.616 -4.863,64.763l36.029,-1.769l-4.2,12.82l-31.829,0.885Z" style="fill:#fff;fill-rule:nonzero;"/></g><g><path d="M601.234,432.198c32.935,0 57.249,23.651 57.249,43.543c0,23.872 -23.652,41.555 -87.752,28.293l-4.861,-13.703c50.837,9.503 80.897,7.736 80.897,-14.147c0,-11.493 -15.693,-31.829 -45.754,-31.829c-24.977,0 -47.521,22.325 -47.521,47.302c0,24.976 22.544,47.742 47.521,47.742c24.976,0 38.46,-9.504 53.933,-25.198l-5.748,19.452c-6.188,6.189 -17.24,17.903 -47.964,17.903c-30.503,0 -59.9,-29.397 -59.9,-59.899c0,-30.282 29.397,-59.459 59.9,-59.459" style="fill:#fff;fill-rule:nonzero;"/><path d="M526.746,441.04c-55.258,146.986 -55.258,146.986 -110.516,0l10.388,-8.842c44.87,128.2 44.87,128.2 89.74,0.221l10.388,8.621Z" style="fill:#fff;fill-rule:nonzero;"/><path d="M395.893,431.756c-5.968,77.583 -9.062,104.99 5.747,103.885l-13.704,15.914c-8.399,-4.42 -9.947,-22.765 -8.62,-59.678c0,-24.976 -22.545,-47.523 -47.522,-47.523c-24.977,0 -47.523,22.547 -47.523,47.523c0,24.977 22.546,47.521 47.523,47.521c15.252,0 29.618,-8.398 38.459,-20.776l-2.652,19.45c-10.389,8.399 -22.766,13.483 -35.586,13.483c-30.502,0 -59.899,-29.396 -59.899,-59.899c0,-30.281 29.397,-59.459 59.899,-59.459c19.009,0 37.575,11.495 48.848,27.409l1.326,-26.304l13.704,-1.546Z" style="fill:#fff;fill-rule:nonzero;"/><path d="M257.525,441.04c-46.416,123.779 -53.932,143.23 -87.971,58.794c-24.313,-65.866 -32.712,-65.645 -57.026,1.105c-33.817,83.331 -41.333,63.215 -87.528,-59.899l10.388,-8.621c38.239,110.296 44.206,125.768 73.382,46.418c27.409,-67.857 37.576,-67.636 65.205,0.663c28.955,78.466 35.144,62.994 73.161,-47.081l10.389,8.621Z" style="fill:#fff;fill-rule:nonzero;"/></g></g></svg>