<?xml version="1.0" encoding="UTF-8"?>
<!DOCTYPE svg PUBLIC "-//W3C//DTD SVG 1.1//EN" "http://www.w3.org/Graphics/SVG/1.1/DTD/svg11.dtd">
<svg version="1.1" xmlns="http://www.w3.org/2000/svg" xmlns:xlink="http://www.w3.org/1999/xlink" x="0" y="0" width="200" height="60" viewBox="0, 0, 200, 60">
  <g id="Layer_1">
    <path d="M169.189,38.238 L159.144,38.238 Q159.402,40.15 160.746,41.318 Q162.089,42.486 164.073,42.486 Q165.176,42.486 166.385,42.122 Q167.593,41.758 168.356,41.16 L168.65,40.877 L169.331,41.607 L169.025,41.864 Q168.462,42.45 167.024,42.961 Q165.587,43.471 164.073,43.471 Q161.538,43.471 159.842,41.811 Q158.146,40.15 158.146,37.792 Q158.146,35.644 159.737,34.107 Q161.327,32.569 163.674,32.569 Q166.091,32.569 167.652,34.148 Q169.213,35.726 169.189,38.238 z M168.192,37.24 Q167.898,35.609 166.649,34.588 Q165.399,33.567 163.674,33.567 Q161.949,33.567 160.705,34.576 Q159.461,35.585 159.156,37.24 z" fill="#000000"/>
    <path d="M152.784,36.055 Q152.784,35.011 152.021,34.289 Q151.258,33.567 149.979,33.567 Q149.005,33.567 148.289,33.96 Q147.573,34.354 146.247,35.914 L146.247,43.084 L146.247,43.084 L146.247,43.472 L145.261,43.472 L145.261,33.919 L145.261,33.919 L145.261,32.922 L145.261,32.922 L145.261,32.57 L146.247,32.57 L146.247,32.922 L146.247,32.922 L146.247,34.412 Q147.28,33.368 148.113,32.969 Q148.946,32.57 149.991,32.57 L149.991,32.57 Q151.117,32.57 152.044,33.051 Q152.702,33.403 153.236,34.219 Q153.77,35.034 153.77,35.891 L153.769,38.052 L153.77,38.052 L153.77,41.064 L153.769,41.064 L153.769,43.084 L153.769,43.084 L153.769,43.472 L152.784,43.472 L152.784,43.084 L152.783,43.084 L152.783,42.099 L152.784,42.099 L152.784,36.055 z" fill="#000000"/>
    <path d="M140.52,38.026 Q140.52,40.28 138.906,41.876 Q137.293,43.472 135.016,43.472 Q132.716,43.472 131.108,41.87 Q129.501,40.268 129.501,38.026 Q129.501,35.773 131.108,34.171 Q132.716,32.569 135.016,32.569 Q137.293,32.569 138.906,34.165 Q140.52,35.761 140.52,38.026 z M139.523,38.026 Q139.523,36.172 138.202,34.87 Q136.882,33.567 135.004,33.567 Q133.127,33.567 131.807,34.875 Q130.486,36.184 130.486,38.026 Q130.486,39.857 131.807,41.171 Q133.127,42.486 135.004,42.486 Q136.882,42.486 138.202,41.177 Q139.523,39.869 139.523,38.026 z" fill="#000000"/>
    <path d="M126.097,29.353 L126.097,30.354 L125.111,30.354 L125.111,30.339 L121.074,30.339 L121.074,43.084 L121.068,43.084 L121.068,43.471 L120.083,43.471 L120.083,43.084 L120.077,43.084 L120.077,30.339 L116.04,30.339 L116.04,30.354 L115.054,30.354 L115.054,29.353 L126.097,29.353 z" fill="#000000"/>
    <path d="M82.76,36.055 Q82.76,35.01 81.997,34.289 Q81.234,33.567 79.955,33.567 Q78.981,33.567 78.265,33.96 Q77.55,34.353 76.223,35.914 L76.223,43.084 L76.223,43.084 L76.223,43.472 L75.237,43.472 L75.237,33.919 L75.237,33.919 L75.237,32.921 L75.237,32.921 L75.237,32.569 L76.223,32.569 L76.223,32.921 L76.223,32.921 L76.223,34.412 Q77.256,33.368 78.089,32.969 Q78.923,32.57 79.967,32.57 L79.967,32.569 Q81.094,32.57 82.021,33.051 Q82.678,33.403 83.212,34.218 Q83.746,35.034 83.746,35.891 L83.746,38.052 L83.746,38.052 L83.746,41.063 L83.746,41.063 L83.746,43.084 L83.745,43.084 L83.745,43.471 L82.76,43.471 L82.76,43.084 L82.76,43.084 L82.76,42.098 L82.76,42.098 L82.76,36.055 z" fill="#000000"/>
    <path d="M73.082,32.57 L73.082,38.025 L73.083,38.027 L73.082,38.029 L73.082,38.628 L73.082,38.628 L73.082,43.472 L72.097,43.472 L72.097,41.13 L71.469,41.876 Q69.855,43.472 67.579,43.472 Q65.279,43.472 63.671,41.87 Q62.063,40.268 62.063,38.027 Q62.063,35.774 63.671,34.172 Q65.279,32.57 67.579,32.57 Q69.855,32.57 71.469,34.166 L72.097,34.912 L72.097,32.57 L73.082,32.57 z M67.567,33.567 Q65.689,33.567 64.369,34.876 Q63.049,36.184 63.049,38.027 Q63.049,39.858 64.369,41.172 Q65.689,42.486 67.567,42.486 Q69.445,42.486 70.765,41.178 Q72.085,39.869 72.085,38.027 Q72.085,36.173 70.765,34.87 Q69.445,33.567 67.567,33.567 z" fill="#000000"/>
    <path d="M59.767,38.238 L49.722,38.238 Q49.98,40.151 51.324,41.318 Q52.667,42.486 54.651,42.486 Q55.754,42.486 56.962,42.122 Q58.171,41.758 58.934,41.16 L59.228,40.878 L59.909,41.607 L59.603,41.864 Q59.04,42.451 57.602,42.961 Q56.164,43.472 54.651,43.472 Q52.116,43.472 50.42,41.811 Q48.724,40.151 48.724,37.792 Q48.724,35.644 50.314,34.107 Q51.905,32.57 54.252,32.57 Q56.669,32.57 58.23,34.148 Q59.791,35.727 59.767,38.238 z M58.77,37.24 Q58.476,35.609 57.227,34.588 Q55.977,33.567 54.252,33.567 Q52.527,33.567 51.283,34.576 Q50.039,35.586 49.734,37.24 z" fill="#000000"/>
    <path d="M45.584,29.037 L46.57,29.037 L46.57,38.846 L46.57,38.846 L46.57,43.472 L45.584,43.472 L45.584,33.06 L45.584,33.06 L45.584,29.037 z" fill="#000000"/>
    <path d="M41.897,30.703 C41.897,30.703 42.498,31.217 42.882,32.745 C42.085,33.245 42.055,33.273 42.055,33.273 Q41.838,31.83 40.829,31.067 Q39.467,30.023 37.731,30.023 Q36.592,30.023 35.583,30.527 Q34.832,30.891 34.386,31.419 Q33.611,32.335 33.154,33.449 Q32.825,34.271 32.825,35.304 L32.825,37.029 Q32.825,39.235 34.421,40.86 Q36.017,42.486 38.13,42.486 Q39.397,42.486 40.4,41.934 Q41.404,41.383 42.343,40.268 Q42.342,40.265 42.659,39.887 L43.429,40.602 L42.753,41.3 Q41.791,42.38 40.588,42.926 Q39.385,43.471 38.153,43.471 Q37.085,43.471 35.982,43.061 Q35.137,42.744 34.586,42.321 Q34.034,41.899 33.23,40.896 Q32.426,39.892 32.133,39.041 Q31.839,38.191 31.839,37.17 L31.839,35.163 Q31.839,33.708 32.62,32.188 Q33.4,30.668 34.756,29.853 Q36.111,29.037 37.695,29.037 Q40.136,29.037 41.897,30.703 z" fill="#000000"/>
    <path d="M57.438,17.156 L57.437,17.156 L57.437,22 L56.452,22 L56.452,11.098 L56.452,11.098 L56.452,7.882 L53.612,7.882 L53.607,7.882 L52.943,7.882 L52.943,6.885 L57.438,6.885 L57.438,17.156 z" fill="#000000"/>
  </g>
  <g id="spacers" display="none">
    <path d="M-46.088,46.469 L-44.5,46.469 L-44.5,49.672 L-46.088,49.672 L-46.088,46.469 z" fill="#BE5959"/>
    <path d="M-41.2,52.052 L-10.75,52.052 L-10.75,55.255 L-41.2,55.255 L-41.2,52.052 z" fill="#BE5959"/>
    <path d="M43.429,28.055 L45.584,28.055 L45.584,41.986 L43.429,41.986 L43.429,28.055 z" fill="#5A59DF"/>
    <path d="M46.57,28.357 L48.724,28.357 L48.724,42.288 L46.57,42.288 L46.57,28.357 z" fill="#5A59DF"/>
    <path d="M59.909,30.694 L62.063,30.694 L62.063,44.625 L59.909,44.625 L59.909,30.694 z" fill="#5A59DF"/>
    <path d="M73.083,30.694 L75.237,30.694 L75.237,44.625 L73.083,44.625 L73.083,30.694 z" fill="#5A59DF"/>
  </g>
</svg>
