<?xml version="1.0" encoding="utf-8"?>
<!-- Generator: Adobe Illustrator 18.1.1, SVG Export Plug-In . SVG Version: 6.00 Build 0)  -->
<svg version="1.1" id="Layer_1" xmlns="http://www.w3.org/2000/svg" xmlns:xlink="http://www.w3.org/1999/xlink" x="0px" y="0px"
	 viewBox="256 380 100 32" enable-background="new 256 380 100 32" xml:space="preserve">
<g>
	<path fill="#FFFFFF" d="M321.4,388h4.4c-0.5-0.6-1.3-1-2.2-1S322,387.4,321.4,388z"/>
	<circle fill="#FFFFFF" cx="303.5" cy="390" r="3"/>
	<path fill="#FFFFFF" d="M257,381l48.2,30l49.8-30H257z M295.5,395h-2v-6.5c0-0.8-0.7-1.5-1.5-1.5s-1.5,0.7-1.5,1.5v6.5h-2v-6.5
		c0-0.8-0.7-1.5-1.5-1.5s-1.5,0.7-1.5,1.5v6.5h-2v-6.5c0-1.9,1.6-3.5,3.5-3.5c1,0,1.9,0.4,2.5,1.1c0.6-0.6,1.5-1.1,2.5-1.1
		c1.9,0,3.5,1.6,3.5,3.5V395z M303.5,395c-2.8,0-5-2.2-5-5s2.2-5,5-5s5,2.2,5,5S306.3,395,303.5,395z M316.1,387c-1.7,0-3,1.3-3,3v5
		h-2v-5c0-2.8,2.2-5,5-5V387z M324.1,390h-3.5c0,1.7,1.3,3,3,3c0.2,0,0.3,0,0.5,0c0,1.1,0,2,0,2c-3,0-5.3-2.2-5.3-5s2.1-5,4.8-5
		s4.8,2.2,4.8,5h-1.8H324.1z"/>
</g>
</svg>
