<?xml version="1.0" encoding="utf-8"?>
<!-- Generator: Adobe Illustrator 18.1.1, SVG Export Plug-In . SVG Version: 6.00 Build 0)  -->
<svg version="1.1" id="Layer_1" xmlns="http://www.w3.org/2000/svg" xmlns:xlink="http://www.w3.org/1999/xlink" x="0px" y="0px"
	 viewBox="0 0 100 50" enable-background="new 0 0 100 50" xml:space="preserve">
<polygon fill="#FFFFFF" points="99,1.4 50,49.4 1,1.4 "/>
<g>
	<path fill="#666666" d="M30.3,10.1c0,0-3.8,0.2-3.8,4.9c0,0.5,0,5,0,5h-0.5c0,0,0,0.4,0-5s4.3-5.4,4.3-5.4c0.5,0,1,0.1,1.4,0.2
		c0.4,0.2,0.7,0.4,1,0.7c0.3,0.3,0.5,0.6,0.6,1c0.2,0.4,0.3,0.8,0.4,1.2h0c0.3-1,0.8-1.8,1.5-2.3c0.7-0.5,1.5-0.8,2.4-0.8
		c0.7,0,1.2,0.1,1.7,0.4c0.5,0.2,0.8,0.6,1.1,1c0.3,0.4,0.5,0.9,0.6,1.4s0.2,1,0.2,1.6V20h-0.5V14c0-0.4,0-0.8-0.1-1.3
		c-0.1-0.5-0.3-0.9-0.5-1.3c-0.2-0.4-0.5-0.7-0.9-1s-0.9-0.4-1.5-0.4c-0.5,0-1,0.1-1.5,0.3c-0.5,0.2-0.9,0.6-1.2,1s-0.6,0.9-0.8,1.5
		c-0.2,0.6-0.3,1.3-0.3,2.1v5h-0.5c0,0,0-1.7,0-6.1C33.3,9.8,30.3,10.1,30.3,10.1z"/>
	<path fill="#666666" d="M55.2,15c0,0.8-0.1,1.5-0.4,2.2c-0.3,0.7-0.6,1.2-1.1,1.7c-0.5,0.5-1,0.8-1.7,1.1c-0.7,0.3-1.4,0.4-2.1,0.4
		c-0.8,0-1.5-0.1-2.1-0.4c-0.6-0.3-1.2-0.6-1.7-1.1c-0.5-0.5-0.8-1-1.1-1.7c-0.3-0.7-0.4-1.4-0.4-2.2c0-0.8,0.1-1.5,0.4-2.2
		c0.3-0.7,0.6-1.2,1.1-1.7c0.5-0.5,1-0.8,1.7-1.1c0.6-0.3,1.4-0.4,2.1-0.4c0.8,0,1.5,0.1,2.1,0.4c0.7,0.3,1.2,0.6,1.7,1.1
		c0.5,0.5,0.8,1,1.1,1.7C55,13.5,55.2,14.2,55.2,15z M54.7,15c0-0.7-0.1-1.3-0.3-1.9c-0.2-0.6-0.5-1.1-1-1.6
		c-0.4-0.4-0.9-0.8-1.5-1.1s-1.3-0.4-2-0.4c-0.7,0-1.4,0.1-2,0.4s-1.1,0.6-1.5,1.1c-0.4,0.4-0.7,1-1,1.6c-0.2,0.6-0.3,1.2-0.3,1.9
		c0,0.7,0.1,1.3,0.3,1.9c0.2,0.6,0.5,1.1,1,1.6c0.4,0.4,0.9,0.8,1.5,1.1c0.6,0.3,1.3,0.4,2,0.4c0.7,0,1.4-0.1,2-0.4
		c0.6-0.3,1.1-0.6,1.5-1.1c0.4-0.4,0.7-1,1-1.6C54.6,16.3,54.7,15.7,54.7,15z"/>
	<path fill="#666666" d="M60.7,10.3c0.6-0.5,1.3-0.7,2.1-0.7c0.1,0,0.1,0,0.2,0c0.1,0,0.1,0,0.2,0v0.4c-0.1,0-0.1,0-0.2,0
		c-0.1,0-0.1,0-0.1,0c-0.6,0-1.2,0.1-1.6,0.4c-0.5,0.3-0.8,0.7-1.1,1.1c-0.3,0.5-0.5,1-0.6,1.5c-0.1,0.6-0.2,1.1-0.2,1.7V20h-0.5
		v-7.5c0-0.2,0-0.4,0-0.6c0-0.2,0-0.5,0-0.7c0-0.2,0-0.5,0-0.7c0-0.2,0-0.4,0-0.5h0.5c0,0.1,0,0.3,0,0.5c0,0.2,0,0.5,0,0.7
		c0,0.3,0,0.5,0,0.7c0,0.2,0,0.5,0,0.6h0C59.6,11.6,60.1,10.8,60.7,10.3z"/>
	<path fill="#666666" d="M64.9,14.9c0,0.6,0.1,1.2,0.3,1.8c0.2,0.6,0.5,1.1,0.8,1.6c0.4,0.5,0.8,0.9,1.4,1.2c0.6,0.3,1.2,0.4,2,0.4
		c0.8,0,1.5-0.2,2.1-0.5c0.6-0.3,1.1-0.8,1.6-1.4l0.4,0.3c-0.5,0.6-1.1,1.1-1.7,1.5c-0.7,0.3-1.4,0.5-2.3,0.5c-0.7,0-1.4-0.1-2-0.4
		c-0.6-0.3-1.1-0.6-1.6-1.1c-0.4-0.5-0.8-1.1-1-1.7c-0.2-0.7-0.4-1.4-0.4-2.2c0-0.8,0.1-1.5,0.4-2.1c0.2-0.6,0.6-1.2,1-1.7
		c0.4-0.5,0.9-0.8,1.5-1.1c0.6-0.3,1.2-0.4,1.9-0.4c0.8,0,1.5,0.1,2.1,0.4c0.6,0.3,1.1,0.6,1.5,1.1c0.4,0.5,0.7,1,0.9,1.5
		c0.2,0.6,0.3,1.2,0.3,1.8v0.4H64.9z M73.5,14.5c0-0.7-0.1-1.3-0.3-1.8c-0.2-0.5-0.5-1-0.9-1.4c-0.4-0.4-0.8-0.7-1.3-0.9
		c-0.5-0.2-1.1-0.3-1.7-0.3c-0.8,0-1.4,0.2-2,0.5c-0.5,0.3-1,0.7-1.3,1.2c-0.3,0.5-0.6,0.9-0.8,1.4C65,13.7,65,14.1,65,14.5H73.5z"
		/>
</g>
</svg>
